<?xml version="1.0" encoding="UTF-8" standalone="no"?>
<!-- Created with Inkscape (http://www.inkscape.org/) -->

<svg
   xmlns:dc="http://purl.org/dc/elements/1.1/"
   xmlns:cc="http://creativecommons.org/ns#"
   xmlns:rdf="http://www.w3.org/1999/02/22-rdf-syntax-ns#"
   xmlns:svg="http://www.w3.org/2000/svg"
   xmlns="http://www.w3.org/2000/svg"
   xmlns:sodipodi="http://sodipodi.sourceforge.net/DTD/sodipodi-0.dtd"
   xmlns:inkscape="http://www.inkscape.org/namespaces/inkscape"
   width="145mm"
   height="145mm"
   viewBox="0 0 145 145"
   version="1.1"
   id="svg8"
   inkscape:version="0.92.3 (2405546, 2018-03-11)"
   sodipodi:docname="zzdcbowl_logo.svg"
   inkscape:export-filename="C:\Users\oda\Pictures\zzdcbowl_logo.png"
   inkscape:export-xdpi="542.62451"
   inkscape:export-ydpi="542.62451">
  <defs
     id="defs2" />
  <sodipodi:namedview
     id="base"
     pagecolor="#ffffff"
     bordercolor="#666666"
     borderopacity="1.0"
     inkscape:pageopacity="0.0"
     inkscape:pageshadow="2"
     inkscape:zoom="0.24748738"
     inkscape:cx="-17.372436"
     inkscape:cy="247.75599"
     inkscape:document-units="mm"
     inkscape:current-layer="layer1"
     showgrid="false"
     inkscape:window-width="1920"
     inkscape:window-height="1017"
     inkscape:window-x="-8"
     inkscape:window-y="-8"
     inkscape:window-maximized="1"
     fit-margin-left="1"
     fit-margin-top="1"
     fit-margin-right="1"
     fit-margin-bottom="1" />
  <metadata
     id="metadata5">
    <rdf:RDF>
      <cc:Work
         rdf:about="">
        <dc:format>image/svg+xml</dc:format>
        <dc:type
           rdf:resource="http://purl.org/dc/dcmitype/StillImage" />
        <dc:title></dc:title>
      </cc:Work>
    </rdf:RDF>
  </metadata>
  <g
     inkscape:label="レイヤー 1"
     inkscape:groupmode="layer"
     id="layer1"
     transform="translate(-94.457305,99.906523)">
    <g
       id="g4618"
       transform="matrix(9.9997972,0,0,9.9997972,-836.9057,-394.83227)">
      <text
         transform="scale(1.5317465,0.65284955)"
         id="text12"
         y="56.50235"
         x="61.518841"
         style="font-style:normal;font-variant:normal;font-weight:900;font-stretch:normal;font-size:6.34950209px;line-height:1.25;font-family:'Noto Serif CJK JP';-inkscape-font-specification:'Noto Serif CJK JP Heavy';letter-spacing:0px;word-spacing:0px;fill:#ff6600;fill-opacity:1;stroke:none;stroke-width:0.15873756"
         xml:space="preserve"><tspan
           style="font-style:normal;font-variant:normal;font-weight:900;font-stretch:normal;font-family:'Noto Serif CJK JP';-inkscape-font-specification:'Noto Serif CJK JP Heavy';fill:#ff6600;stroke-width:0.15873756"
           y="56.50235"
           x="61.518841"
           id="tspan10"
           sodipodi:role="line">ZZ</tspan></text>
      <rect
         y="38.941845"
         x="94.471863"
         height="0.71100718"
         width="3.4809473"
         id="rect14"
         style="fill:#ff6600;stroke-width:0.22449847" />
      <rect
         y="38.941845"
         x="98.668854"
         height="0.74441588"
         width="3.4809473"
         id="rect14-0"
         style="fill:#ff6600;stroke-width:0.22971226" />
      <rect
         y="38.941845"
         x="102.86584"
         height="0.71100718"
         width="3.4809473"
         id="rect14-8"
         style="fill:#ff6600;stroke-width:0.22449847" />
      <rect
         y="37.583786"
         x="94.455307"
         height="0.67759848"
         width="11.856105"
         id="rect14-8-0"
         style="fill:#ff6600;stroke-width:0.40446869" />
      <path
         inkscape:connector-curvature="0"
         id="path4582"
         d="m 94.484046,40.254339 c 0.01283,0.209701 0.03728,0.420224 0.102836,0.632002 0.04081,0.131839 0.202165,0.44473 0.358634,0.695047 0.783133,1.252871 2.763846,2.199526 4.80281,2.295983 1.681504,0.07955 2.944514,-0.133125 4.141344,-0.698148 1.1821,-0.558057 1.88847,-1.222531 2.29547,-2.158008 0.10292,-0.236553 0.11455,-0.453213 0.12247,-0.766876 z m 10.786934,0.467669 a 0.36749558,0.36749558 0 0 1 0.36743,0.367422 0.36749558,0.36749558 0 0 1 -0.36743,0.367419 0.36749558,0.36749558 0 0 1 -0.36793,-0.367419 0.36749558,0.36749558 0 0 1 0.36793,-0.367422 z"
         style="fill:#ff6600;fill-opacity:1;stroke-width:0.05788353" />
      <path
         inkscape:connector-curvature="0"
         id="path4582-2"
         d="m 94.614965,33.187118 c 0.0128,-0.209703 0.0369,-0.420241 0.10248,-0.63202 0.0408,-0.131839 0.20223,-0.444672 0.3587,-0.694989 0.78313,-1.252871 2.76395,-2.199697 4.80291,-2.296156 1.681515,-0.07955 2.944555,0.133485 4.141385,0.698507 1.1821,0.558058 1.88865,1.222231 2.29565,2.157708 0.10292,0.236554 0.11454,0.453287 0.12246,0.76695 z"
         style="fill:#ff6600;fill-opacity:1;stroke-width:0.05788353" />
    </g>
  </g>
</svg>
